<?xml version="1.0" standalone="no"?>
<!DOCTYPE svg PUBLIC "-//W3C//DTD SVG 20010904//EN"
 "http://www.w3.org/TR/2001/REC-SVG-20010904/DTD/svg10.dtd">
<svg version="1.0" xmlns="http://www.w3.org/2000/svg"
 width="990.000000pt" height="990.000000pt" viewBox="0 0 990.000000 990.000000"
 preserveAspectRatio="xMidYMid meet">

<g transform="translate(0.000000,990.000000) scale(0.100000,-0.100000)"
fill="#000000" stroke="none">
<path d="M4412 7310 c-29 -11 -711 -349 -1514 -752 -1228 -616 -1464 -738
-1479 -763 -24 -39 -24 -55 4 -96 23 -34 138 -104 1007 -614 146 -85 317 -186
380 -224 325 -192 1041 -614 1153 -679 70 -41 126 -76 124 -78 -2 -3 -39 12
-83 32 -43 20 -182 83 -309 139 -126 57 -387 174 -580 260 -192 86 -399 179
-460 205 -60 26 -145 64 -188 84 -43 20 -80 36 -83 36 -3 0 -4 -136 -2 -302
l3 -303 26 -55 c37 -77 98 -142 177 -188 63 -36 421 -248 877 -517 110 -65
236 -139 280 -165 185 -108 553 -325 588 -347 72 -45 133 -63 217 -63 98 0
125 10 300 113 377 223 1112 656 1400 826 179 106 340 207 358 224 18 18 50
66 70 106 l37 75 3 298 c2 164 1 298 -1 298 -7 0 -368 -158 -552 -243 -60 -27
-180 -80 -265 -118 -85 -37 -272 -120 -415 -184 -511 -230 -524 -235 -290 -98
72 41 240 141 375 221 135 80 270 160 300 178 99 57 388 227 785 461 215 127
525 310 690 407 165 97 310 188 323 202 31 35 30 94 -2 125 -32 30 -2905 1474
-2985 1499 -81 26 -196 26 -269 0z"/>
<path d="M7173 5023 c-10 -4 -13 -155 -13 -709 l0 -704 -59 0 c-44 0 -60 -4
-65 -16 -3 -9 -6 -236 -6 -506 0 -515 1 -530 43 -506 15 8 17 34 17 241 0 128
4 238 9 245 5 8 17 12 27 10 18 -3 19 -17 22 -242 2 -234 7 -266 36 -266 35 1
37 14 37 241 0 124 3 235 6 248 4 15 12 21 27 19 21 -3 21 -7 24 -245 2 -227
4 -243 21 -253 11 -5 27 -7 35 -4 14 5 16 35 16 218 0 254 4 288 34 284 21 -3
21 -8 26 -248 l5 -245 28 -3 27 -3 -2 513 -3 513 -60 1 -60 1 3 194 c1 107 5
420 8 696 6 398 4 506 -6 518 -9 11 -32 15 -89 14 -42 0 -82 -3 -88 -6z"/>
<path d="M3887 1893 c-4 -3 -7 -26 -7 -50 0 -42 1 -43 34 -43 64 0 66 -7 66
-248 0 -119 -3 -227 -6 -239 -5 -17 -15 -23 -48 -25 l-41 -3 -3 -47 -3 -48
375 0 376 0 0 145 0 145 -55 0 -54 0 -6 -37 c-10 -65 -39 -127 -65 -140 -15
-8 -67 -13 -132 -13 l-108 0 0 111 0 112 41 -6 c53 -7 60 -15 66 -71 l6 -46
43 0 44 0 0 160 0 160 -45 0 c-43 0 -45 -1 -45 -30 0 -41 -39 -80 -80 -80
l-30 0 0 101 0 102 99 -5 c142 -7 167 -25 205 -150 4 -14 17 -18 61 -18 l55 0
0 135 0 135 -368 0 c-203 0 -372 -3 -375 -7z"/>
<path d="M2710 1844 c0 -46 0 -46 30 -42 16 3 28 2 25 0 -3 -3 17 -30 43 -61
54 -64 54 -63 123 -155 43 -57 49 -71 38 -80 -8 -6 -45 -49 -84 -96 -95 -117
-101 -122 -150 -128 -42 -4 -43 -6 -40 -36 2 -17 4 -37 4 -43 1 -10 42 -13
171 -13 l170 0 0 45 c0 42 -2 45 -27 45 -16 0 -34 4 -42 9 -12 8 -12 14 4 38
10 15 31 42 47 58 15 17 28 33 28 38 0 23 35 0 70 -46 48 -64 51 -85 11 -93
-25 -5 -28 -10 -25 -38 1 -17 3 -37 3 -43 1 -10 47 -13 196 -13 l195 0 0 45
c0 41 -2 45 -24 45 -37 0 -79 42 -158 156 -39 57 -73 104 -75 104 -2 0 -1 -6
3 -12 4 -8 3 -9 -2 -5 -5 5 -9 16 -9 25 0 9 -6 16 -13 14 -21 -4 -1 25 77 113
43 49 69 86 65 95 -3 8 -2 11 2 8 4 -4 16 -1 28 7 11 8 33 15 48 15 26 0 28 2
28 45 l0 45 -155 0 -155 0 0 -45 c0 -43 1 -45 29 -45 43 0 43 -20 -1 -70 -22
-25 -44 -51 -50 -59 -9 -11 -17 -7 -43 20 -17 19 -30 37 -28 41 2 4 -1 9 -7
13 -5 3 -10 17 -10 31 0 21 9 29 33 25 4 0 7 19 7 44 l0 45 -190 0 -190 0 0
-46z"/>
<path d="M5511 1828 c-19 -86 -66 -138 -122 -138 -18 0 -20 -6 -17 -47 2 -34
7 -48 18 -49 8 -1 23 -2 33 -3 15 -1 17 -15 17 -155 0 -142 2 -155 23 -186 43
-64 68 -75 172 -75 79 0 98 3 122 21 40 29 54 64 60 150 l6 74 -47 0 -46 0 0
-39 c0 -63 -11 -101 -33 -113 -39 -20 -47 11 -47 173 l0 148 73 3 72 3 0 45 0
45 -72 3 -73 3 0 94 0 95 -63 0 -64 0 -12 -52z"/>
<path d="M6053 1698 c-72 -8 -111 -26 -146 -68 -58 -69 -41 -166 36 -207 17
-9 77 -33 131 -52 54 -20 104 -44 110 -53 28 -45 -75 -69 -144 -33 -17 9 -39
30 -48 46 -15 25 -22 29 -64 29 l-48 0 0 -90 0 -90 40 0 c25 0 42 6 48 16 8
14 16 13 81 -6 136 -42 277 -15 335 63 32 43 29 137 -4 173 -31 33 -79 57
-155 79 -115 34 -152 62 -121 93 33 33 136 11 180 -37 13 -14 31 -21 58 -21
l38 0 0 80 0 80 -35 0 c-21 0 -37 -6 -43 -16 -8 -15 -14 -15 -43 -5 -52 19
-137 27 -206 19z"/>
<path d="M4839 1685 c-139 -44 -147 -205 -11 -205 63 0 95 23 95 70 0 23 -7
39 -23 52 -29 24 -21 31 35 31 72 0 113 -54 89 -117 -9 -24 -31 -33 -132 -55
-110 -24 -147 -42 -167 -81 -19 -37 -19 -103 0 -140 9 -17 34 -39 57 -51 67
-34 187 -19 261 33 13 10 20 10 25 2 18 -29 79 -54 130 -54 111 0 152 43 152
160 l0 60 -35 0 c-35 0 -35 0 -35 -45 0 -38 -3 -45 -20 -45 -19 0 -20 7 -20
141 0 167 -10 198 -74 232 -34 18 -61 22 -161 24 -85 2 -134 -2 -166 -12z
m191 -322 c0 -55 -21 -83 -61 -83 -19 0 -34 8 -45 25 -16 24 -16 27 2 46 18
20 80 58 97 59 4 0 7 -21 7 -47z"/>
<path d="M3520 1435 l0 -85 155 0 155 0 0 85 0 85 -155 0 -155 0 0 -85z"/>
</g>
</svg>
